<?xml version="1.0" encoding="UTF-8" standalone="no"?>
<svg
   viewBox="0 0 495 395"
   width="495"
   height="395"
   version="1.1"
   id="svg4"
   sodipodi:docname="Spindly-logo.svg"
   inkscape:export-filename="/run/media/cc/Projects/CodeProjects/github.com/spindlygo/spindly-media/logo/Spindly-logo.png"
   inkscape:export-xdpi="794.49115"
   inkscape:export-ydpi="794.49115"
   inkscape:version="1.1.2 (0a00cf5339, 2022-02-04, custom)"
   xmlns:inkscape="http://www.inkscape.org/namespaces/inkscape"
   xmlns:sodipodi="http://sodipodi.sourceforge.net/DTD/sodipodi-0.dtd"
   xmlns="http://www.w3.org/2000/svg"
   xmlns:svg="http://www.w3.org/2000/svg">
  <defs
     id="defs8" />
  <sodipodi:namedview
     id="namedview6"
     pagecolor="#ffffff"
     bordercolor="#666666"
     borderopacity="1.0"
     inkscape:pageshadow="2"
     inkscape:pageopacity="0.0"
     inkscape:pagecheckerboard="0"
     showgrid="false"
     inkscape:zoom="1.5949367"
     inkscape:cx="118.5"
     inkscape:cy="197.5"
     inkscape:window-width="1920"
     inkscape:window-height="1048"
     inkscape:window-x="0"
     inkscape:window-y="0"
     inkscape:window-maximized="1"
     inkscape:current-layer="svg4" />
  <path
     class="st0"
     d="M 487.82 237.62 C 480.394 267.176 459.331 293.334 422.211 309.3 L 284.532 367.191 C 207.324 400.823 97.284 386.756 42.841 333.42 C 17.105 308.621 6.852 281.583 5.28 250.252 C 2.84 201.679 0.418 147.393 21.558 134.688 C 52.581 116.047 176.006 146.024 209.808 106.667 L 234.74 70.268 C 277.173 -1.511 414.02 -21.996 466.533 38.548 C 492.769 63.348 494.253 212.822 487.82 237.62 Z M 341.27 38.154 L 247.849 97.604 C 232.562 107.116 221.691 123.083 218.634 140.748 C 215.576 159.092 219.653 177.777 230.524 192.724 C 248.189 218.203 279.782 230.092 310.016 222.279 C 316.811 220.241 323.266 217.523 329.041 213.786 L 364.71 191.025 C 366.41 190.006 368.448 189.327 370.486 188.648 C 379.658 186.269 389.17 189.667 394.606 197.48 C 397.663 201.896 399.021 207.671 398.002 213.107 C 396.983 218.542 393.927 222.959 389.17 226.016 L 296.089 285.466 C 294.389 286.485 292.351 287.165 290.314 287.844 C 281.141 290.222 271.629 286.826 266.193 279.011 C 263.476 274.935 262.25 267.509 262.25 267.509 C 249.572 272.554 221.901 274.833 226.909 292.624 C 234.882 320.953 275.026 342.539 305.26 334.724 C 312.055 332.687 318.51 329.968 324.285 326.232 L 417.706 266.782 C 432.994 257.27 443.865 241.303 446.921 223.638 C 450.319 205.294 445.902 186.609 435.371 171.662 C 417.706 146.183 386.113 134.293 355.879 142.106 C 349.083 143.806 342.629 146.523 336.854 150.26 L 301.184 173.021 C 299.485 174.04 297.447 174.719 295.409 175.398 C 286.237 177.777 276.724 174.379 271.289 166.566 C 268.232 162.15 266.872 156.375 267.893 150.939 C 268.911 145.504 271.968 141.088 276.724 138.03 L 369.806 78.58 C 371.504 77.56 373.543 76.881 375.581 76.202 C 384.754 73.824 394.503 77.401 399.702 85.374 C 416.103 110.547 419.612 111.132 419.612 111.132 C 445.974 103.237 453.848 97.716 454.528 94.659 C 460.436 93.419 450.659 74.164 439.788 59.216 C 422.123 33.737 390.529 21.847 360.294 29.661 C 353.5 31.699 347.046 34.418 341.27 38.154 Z M 196.385 185.76 C 197.52 185.76 199.405 183.466 200.163 181.173 L 206.58 161.294 C 207.334 158.997 206.958 156.705 205.449 156.705 L 70.654 156.705 C 69.145 156.705 67.257 158.232 66.503 160.53 L 58.574 181.173 C 57.816 183.466 58.193 184.995 59.705 184.995 L 196.385 185.76 Z M 209.012 258.32 C 210.521 258.32 212.033 256.791 212.41 253.733 L 215.43 235.382 C 215.808 233.086 215.053 230.793 213.545 230.793 L 41.37 230.793 C 39.859 230.793 37.974 232.321 37.215 234.618 L 29.286 255.262 C 28.533 257.555 28.91 259.084 30.421 259.084 L 209.012 258.32 Z M 207.569 333.475 C 208.704 333.475 210.212 331.181 210.212 328.124 L 210.969 309.772 C 210.969 306.715 210.212 304.419 208.704 304.419 L 133.188 304.419 C 131.677 304.419 130.168 306.715 129.414 309.008 L 124.128 328.124 C 123.371 330.417 123.748 332.71 125.259 332.71 L 207.569 333.475 Z"
     style="fill: rgb(179, 0, 255);"
     id="path2" />
</svg>
